<?xml version="1.0"?>
<svg xmlns="http://www.w3.org/2000/svg" width="512" height="512" viewBox="0 0 512 512"><g><path d="M472,280H368V16a8,8,0,0,0-8-8H40a8,8,0,0,0-8,8V440a64.072,64.072,0,0,0,64,64H416a64.3,64.3,0,0,0,62.85-51.88A8.021,8.021,0,0,0,480,448V288A8,8,0,0,0,472,280ZM96,488a48.051,48.051,0,0,1-48-48V24H352V440a63.839,63.839,0,0,0,21.74,48Zm368-48a47.182,47.182,0,0,1-.49,6.87A48,48,0,0,1,368,440V296h96Z"/><path d="M328,41H72a8,8,0,0,0-8,8V152a8,8,0,0,0,8,8H328a8,8,0,0,0,8-8V49A8,8,0,0,0,328,41Zm-8,103H80V57H320Z"/><path d="M328,176H72a8,8,0,0,0,0,16H328a8,8,0,0,0,0-16Z"/><path d="M328,208H72a8,8,0,0,0,0,16H328a8,8,0,0,0,0-16Z"/><path d="M72,256H232a8,8,0,0,0,0-16H72a8,8,0,0,0,0,16Z"/><path d="M264,256a8,8,0,0,0,0-16h-8a8,8,0,0,0,0,16Z"/><path d="M328,368H72a8,8,0,0,0,0,16H328a8,8,0,0,0,0-16Z"/><path d="M328,400H72a8,8,0,0,0,0,16H328a8,8,0,0,0,0-16Z"/><path d="M232,432H72a8,8,0,0,0,0,16H232a8,8,0,0,0,0-16Z"/><path d="M264,432h-8a8,8,0,0,0,0,16h8a8,8,0,0,0,0-16Z"/><path d="M328,272H168a8,8,0,0,0,0,16H328a8,8,0,0,0,0-16Z"/><path d="M328,304H168a8,8,0,0,0,0,16H328a8,8,0,0,0,0-16Z"/><path d="M232,352a8,8,0,0,0,0-16H168a8,8,0,0,0,0,16Z"/><path d="M264,352a8,8,0,0,0,0-16h-8a8,8,0,0,0,0,16Z"/><path d="M72,352h64a8,8,0,0,0,8-8V280a8,8,0,0,0-8-8H72a8,8,0,0,0-8,8v64A8,8,0,0,0,72,352Zm8-64h48v48H80Z"/></g></svg>
