<svg xmlns="http://www.w3.org/2000/svg" xmlns:xlink="http://www.w3.org/1999/xlink" viewBox="0 0 270.89 232.32"><defs><style>.cls-1{isolation:isolate;}.cls-2,.cls-3{fill:#e1f4fd;}.cls-11,.cls-3,.cls-5{opacity:0.5;}.cls-4,.cls-5{fill:#fff;}.cls-6{fill:url(#Áåçûìÿííûé_ãðàäèåíò_292);}.cls-7,.cls-9{opacity:0.82;mix-blend-mode:color-dodge;}.cls-7{fill:url(#Áåçûìÿííûé_ãðàäèåíò_284);}.cls-8{fill:url(#Áåçûìÿííûé_ãðàäèåíò_206);}.cls-9{fill:url(#Áåçûìÿííûé_ãðàäèåíò_284-2);}.cls-10,.cls-11{fill:#0e80c4;}</style><linearGradient id="Áåçûìÿííûé_ãðàäèåíò_292" x1="48.73" y1="20.39" x2="48.73" y2="-8.4" gradientTransform="translate(-0.58 110.05) rotate(-26.76)" gradientUnits="userSpaceOnUse"><stop offset="0" stop-color="#343c98"/><stop offset="1" stop-color="#0a66a6"/></linearGradient><linearGradient id="Áåçûìÿííûé_ãðàäèåíò_284" x1="47.68" y1="14.88" x2="47.68" y2="-8.31" gradientTransform="translate(-0.58 110.05) rotate(-26.76)" gradientUnits="userSpaceOnUse"><stop offset="0" stop-color="#313131"/><stop offset="1" stop-color="#355f8c"/></linearGradient><linearGradient id="Áåçûìÿííûé_ãðàäèåíò_206" x1="327.12" y1="243.07" x2="327.12" y2="208.63" gradientTransform="translate(-78.08 -139.76) rotate(7.31)" gradientUnits="userSpaceOnUse"><stop offset="0" stop-color="#1b53a0"/><stop offset="1" stop-color="#2b7cc1"/></linearGradient><linearGradient id="Áåçûìÿííûé_ãðàäèåíò_284-2" x1="328.4" y1="241.43" x2="328.4" y2="209.27" gradientTransform="translate(-78.08 -139.76) rotate(7.31)" xlink:href="#Áåçûìÿííûé_ãðàäèåíò_284"/></defs><title>back</title><g class="cls-1"><g id="Layer_1"><path class="cls-2" d="M38.94,42.1C47.87,8.84,83.06-8.67,120.64,3.75,152.28,14.22,210.19,91.36,215.11,139c4.68,45.2-44.39,89.77-119,92.9C8.75,235.52-11.36,188.76,5.51,159.53,47.08,87.43,28.17,82.23,38.94,42.1Z" transform="translate(-0.05 0.25)"/><path class="cls-2" d="M207,114.79a26.76,26.76,0,0,0,6.21,10.35,4.68,4.68,0,0,0,1.56,1.17,3.78,3.78,0,0,0,3.55-.76,7.79,7.79,0,0,0,2.53-8.35,9.64,9.64,0,0,0-6.45-6.18,6.54,6.54,0,0,0-5,.24,3.66,3.66,0,0,0-1.85,4.3.79.79,0,0,0,1-.91Z" transform="translate(-0.05 0.25)"/><path class="cls-2" d="M218.37,119.94a4.92,4.92,0,0,0,.81,4.7,5.15,5.15,0,0,0,3.91-2.74,3.13,3.13,0,0,0-1.53-4.15c-1.57-.54-3.5,1.23-2.81,2.74Z" transform="translate(-0.05 0.25)"/><path class="cls-2" d="M225.74,132.88a2.52,2.52,0,0,0-1.06,2,2.55,2.55,0,0,0,1,0,.9.9,0,0,0,.67-.71c0-.48-.42-.83-.82-1.08l.38-.09Z" transform="translate(-0.05 0.25)"/><path class="cls-2" d="M223.73,130.57a1.14,1.14,0,0,1-.24-.64c.6.06,1,.63,1.29,1.15.17.3.32.68.1.94s-.41.21-.61.32c-.41.24-.68.85-1.14.73a.59.59,0,0,1-.36-.64,1.79,1.79,0,0,1,.34-.71l1-1.44Z" transform="translate(-0.05 0.25)"/><path class="cls-3" d="M246.65,162.26c-.07.48.71.68,1,.33a1.74,1.74,0,0,0,.29-1.38,1.69,1.69,0,0,0-1.62,1Z" transform="translate(-0.05 0.25)"/><path class="cls-2" d="M261.77,153.8a.45.45,0,0,1,.56-.25.81.81,0,0,1,.46.48.77.77,0,0,1,.07.39.57.57,0,0,1-.67.47.61.61,0,0,1-.44-.71.66.66,0,0,1,.7-.49Z" transform="translate(-0.05 0.25)"/><path class="cls-2" d="M233,133.63a.68.68,0,0,0-1,.54,1.14,1.14,0,0,0,.7.24.57.57,0,0,0,.55-.44.38.38,0,0,0-.46-.42Z" transform="translate(-0.05 0.25)"/><path class="cls-2" d="M223.49,128.21a2,2,0,0,0-1.23,1.15l1.38.39a1.35,1.35,0,0,0,.66.07.76.76,0,0,0,.41-1.07,1.08,1.08,0,0,0-1.13-.5Z" transform="translate(-0.05 0.25)"/><path class="cls-3" d="M255.57,151.39l.45.16a.57.57,0,0,0,.09-.72.48.48,0,0,0-.69-.1.42.42,0,0,0,.09.66Z" transform="translate(-0.05 0.25)"/><path class="cls-2" d="M229.63,132.47c.25-.19.08-.62-.19-.77s-.62-.15-.91-.27a1.12,1.12,0,0,1-.64-.69.55.55,0,0,1,.07-.54.71.71,0,0,1,.34-.16,3.49,3.49,0,0,1,1.84,0,1.59,1.59,0,0,1,1.16,1.32,1.22,1.22,0,0,1-1.79,1.16Z" transform="translate(-0.05 0.25)"/><path class="cls-2" d="M221.82,135.62a.75.75,0,0,0-.38,1,1.08,1.08,0,0,0,.93.62c.17,0,.39,0,.43-.2a.42.42,0,0,0-.11-.33l-.81-1.2Z" transform="translate(-0.05 0.25)"/><path class="cls-2" d="M234.15,149.42a1.28,1.28,0,0,1,2,.21,3.26,3.26,0,0,1-1.57,1c-.61.09-1.34-.34-1.32-1l.73-.8Z" transform="translate(-0.05 0.25)"/><path class="cls-2" d="M199.38,97.74a.34.34,0,0,1,0-.48.84.84,0,0,1,.51-.16.89.89,0,0,1,.43.08.63.63,0,0,1,.31.74.8.8,0,0,1-.62.55.53.53,0,0,1-.41-.06.29.29,0,0,1-.09-.37Z" transform="translate(-0.05 0.25)"/><path class="cls-2" d="M233,138.07c-.05.16-.11.31-.17.47a1.09,1.09,0,0,0,.75.17c.25-.07.4-.45.19-.6a.45.45,0,0,0-.28-.07l-.93-.07Z" transform="translate(-0.05 0.25)"/><path class="cls-2" d="M239.52,144.3a3,3,0,0,0,0,1.23,1,1,0,0,0,.87.77.94.94,0,0,0,.58-.19,1.15,1.15,0,1,0-1.46-1.77Z" transform="translate(-0.05 0.25)"/><path class="cls-2" d="M239.22,148.65l.39.75a1.56,1.56,0,0,0,.58-.28.78.78,0,0,0-.88-.67Z" transform="translate(-0.05 0.25)"/><path class="cls-2" d="M212.57,146a10.65,10.65,0,0,0,4,2.71,1.83,1.83,0,0,0,.76.17,1.51,1.51,0,0,0,1.16-.88,3.1,3.1,0,0,0-.48-3.45,3.86,3.86,0,0,0-3.38-1.16,2.57,2.57,0,0,0-1.76.92,1.46,1.46,0,0,0,0,1.87.33.33,0,0,0,.2-.5Z" transform="translate(-0.05 0.25)"/><path class="cls-2" d="M230.53,117.6a2.52,2.52,0,0,0,.33,2.21,2.67,2.67,0,0,0,.81-.64.89.89,0,0,0,.11-1c-.25-.4-.83-.41-1.3-.37l.25-.3Z" transform="translate(-0.05 0.25)"/><path class="cls-2" d="M235.25,120.57a.76.76,0,0,0,.81.81,10.66,10.66,0,0,1,1.66.43l-1.45-2.47a.66.66,0,0,1-.08-.21c0-.26.28-.42.39-.66s-.12-.74-.43-1C234,115.82,235.08,119.41,235.25,120.57Z" transform="translate(-0.05 0.25)"/><path class="cls-2" d="M225.93,115.2a1.93,1.93,0,0,0-.3,1.66l1.34-.51a1.32,1.32,0,0,0,.57-.34.77.77,0,0,0-.31-1.11,1.07,1.07,0,0,0-1.2.28Z" transform="translate(-0.05 0.25)"/><path class="cls-2" d="M229,122.14a.75.75,0,0,0,.28,1,1.1,1.1,0,0,0,1.12-.06c.15-.09.29-.26.22-.42a.45.45,0,0,0-.28-.2L229,122Z" transform="translate(-0.05 0.25)"/><path class="cls-2" d="M222.49,124.13a3,3,0,0,0,0,1.23,1,1,0,0,0,.88.77.93.93,0,0,0,.57-.19,1.15,1.15,0,1,0-1.46-1.76Z" transform="translate(-0.05 0.25)"/><path class="cls-2" d="M227.88,144.35c.36.21.81-.06,1.13-.33s.7-.59,1.1-.47a.4.4,0,0,1,.26.21c.09.28-.28.46-.49.67a3.38,3.38,0,0,0-.38.6,1.4,1.4,0,0,1-1.46.6.78.78,0,0,1,.41-1.36Z" transform="translate(-0.05 0.25)"/><path class="cls-2" d="M238,146.88c.37.21.81-.06,1.13-.33s.71-.59,1.11-.47a.37.37,0,0,1,.25.22c.09.28-.28.46-.49.66a2.85,2.85,0,0,0-.37.6,1.39,1.39,0,0,1-1.46.6.8.8,0,0,1-.25-.81.81.81,0,0,1,.66-.55Z" transform="translate(-0.05 0.25)"/><path class="cls-2" d="M241.47,153.79a2.08,2.08,0,0,0,.55.85.41.41,0,0,0,.13.1.31.31,0,0,0,.3-.08.66.66,0,0,0,.19-.7.84.84,0,0,0-.56-.51.61.61,0,0,0-.42,0,.3.3,0,0,0-.14.36s.09,0,.08-.08Z" transform="translate(-0.05 0.25)"/><path class="cls-2" d="M214.38,112.46a2.52,2.52,0,0,0,.33,2.21,2.56,2.56,0,0,0,.81-.64.89.89,0,0,0,.11-1c-.25-.4-.82-.41-1.3-.37l.26-.3Z" transform="translate(-0.05 0.25)"/><path class="cls-2" d="M220.61,108.74a.68.68,0,0,0-.51,1.05,1.28,1.28,0,0,0,.71-.23.58.58,0,0,0,.17-.68.38.38,0,0,0-.62-.07Z" transform="translate(-0.05 0.25)"/><path class="cls-2" d="M222.7,121.46a.67.67,0,0,0-.5,1.05,1.15,1.15,0,0,0,.7-.23.57.57,0,0,0,.18-.68.39.39,0,0,0-.63-.06Z" transform="translate(-0.05 0.25)"/><path class="cls-2" d="M217.25,109.8c.09-.3-.3-.55-.62-.51s-.58.26-.88.33a1.13,1.13,0,0,1-.93-.17.54.54,0,0,1-.27-.47.72.72,0,0,1,.18-.33,3.42,3.42,0,0,1,1.44-1.15,1.6,1.6,0,0,1,1.72.37,1.22,1.22,0,0,1-.74,2Z" transform="translate(-0.05 0.25)"/><path class="cls-2" d="M232,143.42c.09-.31-.3-.55-.61-.51a9.32,9.32,0,0,0-.88.33,1.13,1.13,0,0,1-.93-.17.54.54,0,0,1-.27-.47.6.6,0,0,1,.18-.33,3.36,3.36,0,0,1,1.44-1.15,1.61,1.61,0,0,1,1.72.36,1.23,1.23,0,0,1-.74,2Z" transform="translate(-0.05 0.25)"/><path class="cls-2" d="M228.6,145.63c.09-.31-.3-.55-.62-.51a9.32,9.32,0,0,0-.88.33,1.13,1.13,0,0,1-.93-.17.57.57,0,0,1-.27-.47.75.75,0,0,1,.18-.34,3.47,3.47,0,0,1,1.44-1.14,1.59,1.59,0,0,1,1.72.36,1.23,1.23,0,0,1,.22,1.22,1.25,1.25,0,0,1-1,.79Z" transform="translate(-0.05 0.25)"/><path class="cls-2" d="M226.37,139.73c.09-.3-.31-.55-.62-.51a9.32,9.32,0,0,0-.88.33,1.13,1.13,0,0,1-.93-.17.54.54,0,0,1-.27-.47.72.72,0,0,1,.18-.33,3.42,3.42,0,0,1,1.44-1.15,1.61,1.61,0,0,1,1.72.36,1.23,1.23,0,0,1-.74,2Z" transform="translate(-0.05 0.25)"/><path class="cls-2" d="M270,132.93c.09-.3-.3-.55-.61-.51s-.58.26-.89.33a1.14,1.14,0,0,1-.93-.17.56.56,0,0,1-.27-.47.72.72,0,0,1,.18-.33,3.39,3.39,0,0,1,1.45-1.15,1.6,1.6,0,0,1,1.72.37,1.25,1.25,0,0,1,.21,1.22,1.26,1.26,0,0,1-1,.78Z" transform="translate(-0.05 0.25)"/><path class="cls-2" d="M223.33,112.24l.15.48a1.13,1.13,0,0,0,.69-.31c.16-.21.06-.6-.2-.6a.54.54,0,0,0-.27.11l-.79.51Z" transform="translate(-0.05 0.25)"/><path class="cls-2" d="M249.5,132.66a3.17,3.17,0,0,0,0,1.23,1,1,0,0,0,.88.77.91.91,0,0,0,.57-.19,1.15,1.15,0,1,0-1.46-1.76Z" transform="translate(-0.05 0.25)"/><path class="cls-2" d="M216.23,122.84a.83.83,0,0,1,.69-1.24,2.25,2.25,0,0,1,.62.75,1.47,1.47,0,0,1-1,.39Z" transform="translate(-0.05 0.25)"/><path class="cls-3" d="M249.68,137.93a1.78,1.78,0,0,0,.15.69.62.62,0,0,0,.58.34c.39-.06.52-.57.83-.8s.82-.17,1-.5a.68.68,0,0,0-.41-.92,1.75,1.75,0,0,0-1.14.13,1.89,1.89,0,0,0-.86.54.74.74,0,0,0,0,1Z" transform="translate(-0.05 0.25)"/><path class="cls-2" d="M228.51,135.22a4.9,4.9,0,0,0-2.17,4.25,5.19,5.19,0,0,0,4.77.15,3.13,3.13,0,0,0,1.26-4.25c-.93-1.37-3.54-1.11-3.89.51Z" transform="translate(-0.05 0.25)"/><path class="cls-2" d="M212.91,124.75a.43.43,0,0,1,.59.14.78.78,0,0,1,.08.65.75.75,0,0,1-.17.36.58.58,0,0,1-.83,0,.62.62,0,0,1,.08-.83.66.66,0,0,1,.85,0Z" transform="translate(-0.05 0.25)"/><path class="cls-2" d="M220.54,129.76c.41.07.75-.33,1-.69s.47-.79.89-.81a.39.39,0,0,1,.31.12c.18.23-.12.53-.25.79a3.14,3.14,0,0,0-.15.69,1.4,1.4,0,0,1-1.18,1,.78.78,0,0,1-.5-.69.8.8,0,0,1,.44-.73Z" transform="translate(-0.05 0.25)"/><path class="cls-2" d="M233.65,132.38l.27.4a.58.58,0,0,0,.51-.52.49.49,0,0,0-.5-.5.41.41,0,0,0-.32.58Z" transform="translate(-0.05 0.25)"/><path class="cls-2" d="M225.75,127.63c0-.17.13-.34.31-.36a.8.8,0,0,1,.5.18,1,1,0,0,1,.31.32.66.66,0,0,1-.2.78.82.82,0,0,1-.83.07.52.52,0,0,1-.29-.29.29.29,0,0,1,.14-.36Z" transform="translate(-0.05 0.25)"/><path class="cls-2" d="M235.29,117.51a4.93,4.93,0,0,0-4.42,1.79,5.19,5.19,0,0,0,3.51,3.24,3.13,3.13,0,0,0,3.73-2.39c.19-1.65-2-3.15-3.27-2.15Z" transform="translate(-0.05 0.25)"/><path class="cls-2" d="M222.58,114.65c-.07.48.71.68,1,.33a1.78,1.78,0,0,0,.29-1.38,1.68,1.68,0,0,0-1.62,1Z" transform="translate(-0.05 0.25)"/><path class="cls-2" d="M214,130.09l.27.4a.59.59,0,0,0,.51-.53.5.5,0,0,0-.5-.5.42.42,0,0,0-.32.59Z" transform="translate(-0.05 0.25)"/><path class="cls-2" d="M222,126.49a11.56,11.56,0,0,0,2.56,4.57,2,2,0,0,0,.66.53,1.64,1.64,0,0,0,1.55-.29,3.37,3.37,0,0,0,1.2-3.59,4.19,4.19,0,0,0-2.72-2.76,2.81,2.81,0,0,0-2.15,0,1.59,1.59,0,0,0-.86,1.83.35.35,0,0,0,.44-.38Z" transform="translate(-0.05 0.25)"/><path class="cls-2" d="M250.35,120a4.94,4.94,0,0,0,.8,4.71,5.22,5.22,0,0,0,3.92-2.75,3.14,3.14,0,0,0-1.54-4.15c-1.57-.54-3.5,1.23-2.81,2.74Z" transform="translate(-0.05 0.25)"/><path class="cls-2" d="M242.25,150.35a2.55,2.55,0,0,0,.33,2.21,2.68,2.68,0,0,0,.82-.63.9.9,0,0,0,.1-1c-.25-.4-.82-.41-1.29-.37l.25-.3Z" transform="translate(-0.05 0.25)"/><path class="cls-2" d="M247,153.33a1,1,0,0,0,.22.59,1,1,0,0,0,.58.21,10.37,10.37,0,0,1,1.66.43L248,152.09a.52.52,0,0,1-.09-.2c0-.27.28-.43.4-.67s-.13-.74-.43-1C245.69,148.58,246.81,152.16,247,153.33Z" transform="translate(-0.05 0.25)"/><path class="cls-2" d="M221.09,131.57l.39.74a1.34,1.34,0,0,0,.69-1.39c-.14-.54-.95-.83-1.3-.39-.21.27-.44.78-.71.56Z" transform="translate(-0.05 0.25)"/><path class="cls-2" d="M243.19,141a1.13,1.13,0,0,1-.24-.65c.59.07,1,.63,1.29,1.16.16.29.31.68.1.94s-.41.2-.62.32c-.4.23-.68.84-1.13.72a.57.57,0,0,1-.36-.63,1.63,1.63,0,0,1,.33-.72l1-1.43Z" transform="translate(-0.05 0.25)"/><path class="cls-2" d="M250.55,135.61c-.07.48.71.68,1,.33a1.74,1.74,0,0,0,.29-1.38,1.69,1.69,0,0,0-1.62,1Z" transform="translate(-0.05 0.25)"/><path class="cls-3" d="M251.48,145.94a.43.43,0,0,1,.55-.25.81.81,0,0,1,.46.48.79.79,0,0,1,.07.4.57.57,0,0,1-.67.46.62.62,0,0,1-.44-.71.67.67,0,0,1,.7-.49Z" transform="translate(-0.05 0.25)"/><path class="cls-2" d="M248.48,146.63a.67.67,0,0,0-.5,1.05,1.22,1.22,0,0,0,.7-.23.57.57,0,0,0,.18-.68.39.39,0,0,0-.63-.07Z" transform="translate(-0.05 0.25)"/><path class="cls-2" d="M237.66,148a1.93,1.93,0,0,0-.3,1.66l1.33-.51a1.42,1.42,0,0,0,.58-.34.78.78,0,0,0-.31-1.11,1.09,1.09,0,0,0-1.21.28Z" transform="translate(-0.05 0.25)"/><path class="cls-3" d="M254.72,140a.86.86,0,0,1,1.59-.14c.11.2.09.52-.13.59a.57.57,0,0,1-.29,0l-1.24-.29.08-.21Z" transform="translate(-0.05 0.25)"/><path class="cls-3" d="M261.3,139.06c.37.21.81-.06,1.13-.33s.71-.59,1.11-.47a.34.34,0,0,1,.25.21c.1.28-.28.46-.49.67a3.34,3.34,0,0,0-.37.6,1.4,1.4,0,0,1-1.46.6.81.81,0,0,1-.25-.82.8.8,0,0,1,.66-.54Z" transform="translate(-0.05 0.25)"/><path class="cls-3" d="M223.75,145.59c.37.2.82-.06,1.13-.34s.71-.58,1.11-.46a.34.34,0,0,1,.25.21c.1.28-.28.46-.49.67a3,3,0,0,0-.37.6,1.42,1.42,0,0,1-1.46.6.79.79,0,0,1-.24-.82.76.76,0,0,1,.65-.54Z" transform="translate(-0.05 0.25)"/><path class="cls-3" d="M261.79,143.23l.12.47a.59.59,0,0,0,.65-.33.49.49,0,0,0-.3-.64.42.42,0,0,0-.5.45Z" transform="translate(-0.05 0.25)"/><path class="cls-2" d="M245.12,147.69c.09-.3-.3-.55-.61-.5a7.34,7.34,0,0,0-.89.33,1.15,1.15,0,0,1-.93-.18.55.55,0,0,1-.26-.47.66.66,0,0,1,.17-.33,3.29,3.29,0,0,1,1.45-1.14,1.58,1.58,0,0,1,1.72.36A1.25,1.25,0,0,1,246,147a1.28,1.28,0,0,1-1,.78Z" transform="translate(-0.05 0.25)"/><path class="cls-2" d="M240.75,154.89a.76.76,0,0,0,.29,1,1.08,1.08,0,0,0,1.12-.06c.14-.09.28-.26.22-.42a.44.44,0,0,0-.29-.2l-1.37-.47Z" transform="translate(-0.05 0.25)"/><path class="cls-2" d="M244.07,133.41a1.3,1.3,0,0,1,2,.22,3.17,3.17,0,0,1-1.57.94c-.62.1-1.35-.33-1.32-.95l.73-.8Z" transform="translate(-0.05 0.25)"/><path class="cls-3" d="M251.2,150.13l.15.48a1,1,0,0,0,.7-.31c.15-.21,0-.6-.21-.6a.7.7,0,0,0-.27.11l-.79.51Z" transform="translate(-0.05 0.25)"/><path class="cls-2" d="M218.66,119.8a3,3,0,0,0,.05,1.23,1,1,0,0,0,.87.77.94.94,0,0,0,.58-.19,1.15,1.15,0,1,0-1.46-1.76Z" transform="translate(-0.05 0.25)"/><path class="cls-2" d="M243.12,122l.39.74a1.56,1.56,0,0,0,.58-.28.8.8,0,0,0-.89-.67Z" transform="translate(-0.05 0.25)"/><path class="cls-2" d="M207.35,101.16a.45.45,0,0,1,.56-.26.87.87,0,0,1,.45.49.74.74,0,0,1,.08.39.57.57,0,0,1-.68.46.62.62,0,0,1-.44-.71.67.67,0,0,1,.7-.49Z" transform="translate(-0.05 0.25)"/><path class="cls-2" d="M242,128.88l.39.75a1.56,1.56,0,0,0,.58-.28.8.8,0,0,0-.89-.67Z" transform="translate(-0.05 0.25)"/><path class="cls-2" d="M222,140.34c-.17.26.13.61.44.66s.63-.07.95-.05a1.12,1.12,0,0,1,.83.43.56.56,0,0,1,.12.53.64.64,0,0,1-.27.27,3.39,3.39,0,0,1-1.71.67,1.6,1.6,0,0,1-1.54-.85,1.26,1.26,0,0,1,.15-1.23,1.24,1.24,0,0,1,1.15-.47Z" transform="translate(-0.05 0.25)"/><path class="cls-2" d="M225.39,123.92a1.72,1.72,0,0,0,.05-.71.6.6,0,0,0-.45-.49c-.39-.06-.66.39-1,.51s-.84-.07-1.14.18a.66.66,0,0,0,.12,1,1.71,1.71,0,0,0,1.12.21,1.94,1.94,0,0,0,1-.26.75.75,0,0,0,.3-.91Z" transform="translate(-0.05 0.25)"/><path class="cls-2" d="M233.89,140a9.41,9.41,0,0,0-3.11-2.91,1.53,1.53,0,0,0-.64-.25,1.35,1.35,0,0,0-1.14.6,2.76,2.76,0,0,0-.05,3.08,3.44,3.44,0,0,0,2.79,1.48,2.25,2.25,0,0,0,1.66-.57,1.27,1.27,0,0,0,.21-1.63.28.28,0,0,0-.24.4Z" transform="translate(-0.05 0.25)"/><path class="cls-2" d="M223.86,142.73a1,1,0,0,0-.41.5,1,1,0,0,0,.11.6,9.47,9.47,0,0,1,.45,1.66l1.42-2.48a.62.62,0,0,1,.14-.18c.21-.16.51,0,.77,0s.58-.47.63-.86C227.34,139.26,224.79,142,223.86,142.73Z" transform="translate(-0.05 0.25)"/><path class="cls-2" d="M233.67,140.25l.09.48a.59.59,0,0,0,.67-.29.47.47,0,0,0-.26-.65.42.42,0,0,0-.53.41Z" transform="translate(-0.05 0.25)"/><path class="cls-2" d="M227.69,145.16a.76.76,0,0,0-.74.75,1.07,1.07,0,0,0,.61.94c.15.08.37.12.48,0a.44.44,0,0,0,0-.34l-.27-1.43Z" transform="translate(-0.05 0.25)"/><path class="cls-2" d="M232.37,142.88a2.48,2.48,0,0,0-1.75,1.38,2.62,2.62,0,0,0,.95.39.88.88,0,0,0,.9-.39c.22-.42-.05-.92-.32-1.31l.38.07Z" transform="translate(-0.05 0.25)"/><path class="cls-2" d="M235.86,143.09a1.19,1.19,0,0,1,.45-.54,1.94,1.94,0,0,1-.36,1.7c-.17.29-.44.61-.77.55s-.38-.25-.58-.37c-.41-.24-1.07-.17-1.19-.62a.57.57,0,0,1,.37-.63,1.71,1.71,0,0,1,.78-.07l1.73.13Z" transform="translate(-0.05 0.25)"/><path class="cls-2" d="M227.09,141.74a1.93,1.93,0,0,0-1.59.57l1.11.9a1.31,1.31,0,0,0,.58.33.77.77,0,0,0,.81-.82,1.06,1.06,0,0,0-.84-.9Z" transform="translate(-0.05 0.25)"/><path class="cls-2" d="M231,148.09c.31-.07.33-.54.13-.79s-.5-.37-.72-.6a1.14,1.14,0,0,1-.32-.89.57.57,0,0,1,.28-.47.7.7,0,0,1,.38,0,3.4,3.4,0,0,1,1.71.69,1.59,1.59,0,0,1,.54,1.67,1.23,1.23,0,0,1-2.11.35Z" transform="translate(-0.05 0.25)"/><path class="cls-2" d="M232.58,127.76a3.2,3.2,0,0,0-1,.65,1,1,0,0,0-.23,1.14,1,1,0,0,0,.45.41,1.15,1.15,0,1,0,.8-2.15Z" transform="translate(-0.05 0.25)"/><path class="cls-2" d="M223.72,130.36a2.52,2.52,0,0,0-1.75,1.38,2.6,2.6,0,0,0,1,.39.87.87,0,0,0,.89-.39c.23-.42,0-.92-.32-1.31l.39.07Z" transform="translate(-0.05 0.25)"/><path class="cls-2" d="M237.16,143.79c.34.23.81,0,1.15-.25s.74-.54,1.14-.39a.37.37,0,0,1,.23.23c.08.29-.31.44-.54.63a3.45,3.45,0,0,0-.41.57,1.41,1.41,0,0,1-1.5.5.8.8,0,0,1-.18-.83.78.78,0,0,1,.69-.5Z" transform="translate(-0.05 0.25)"/><path class="cls-2" d="M227.83,112.83l.36.33a.58.58,0,0,0,.37-.63.49.49,0,0,0-.6-.37.42.42,0,0,0-.18.65Z" transform="translate(-0.05 0.25)"/><path class="cls-2" d="M228.37,138l-.35.37a1.11,1.11,0,0,0,.62.45c.26,0,.55-.25.41-.48a.65.65,0,0,0-.22-.18l-.84-.43Z" transform="translate(-0.05 0.25)"/><path class="cls-4" d="M43.55,117.59a18.16,18.16,0,0,0,.27-8.23,3.21,3.21,0,0,0-.46-1.24,2.58,2.58,0,0,0-2.32-.88,5.33,5.33,0,0,0-4.54,3.85A6.6,6.6,0,0,0,37.92,117a4.39,4.39,0,0,0,2.93,1.7,2.51,2.51,0,0,0,2.65-1.78.55.55,0,0,0-.9.16Z" transform="translate(-0.05 0.25)"/><path class="cls-4" d="M38.91,110.42a3.33,3.33,0,0,0,1.28-3,3.52,3.52,0,0,0-3.25.12,2.14,2.14,0,0,0-.66,3c.7.89,2.46.59,2.62-.53Z" transform="translate(-0.05 0.25)"/><path class="cls-4" d="M39.48,100.28a1.72,1.72,0,0,0,1.34-.74,1.78,1.78,0,0,0-.6-.36.6.6,0,0,0-.65.16c-.2.25-.07.62.07.91l-.25-.09Z" transform="translate(-0.05 0.25)"/><path class="cls-4" d="M39.78,102.35a.84.84,0,0,1-.1.46,1.36,1.36,0,0,1-.32-1.15c0-.22.07-.5.29-.57s.31,0,.47,0c.32,0,.71-.23.92,0a.38.38,0,0,1,0,.49,1.06,1.06,0,0,1-.45.29l-1.09.47Z" transform="translate(-0.05 0.25)"/><path class="cls-5" d="M38.36,75.71c.22-.24-.16-.65-.48-.57s-.52.39-.68.68a1.15,1.15,0,0,0,1.29.05Z" transform="translate(-0.05 0.25)"/><path class="cls-4" d="M26.57,75a.31.31,0,0,1-.42-.06.6.6,0,0,1-.08-.45.55.55,0,0,1,.1-.25.4.4,0,0,1,.56,0,.42.42,0,0,1,0,.57.44.44,0,0,1-.58,0Z" transform="translate(-0.05 0.25)"/><path class="cls-4" d="M35.62,97.18a.47.47,0,0,0,.8.08.8.8,0,0,0-.32-.4.38.38,0,0,0-.47,0,.25.25,0,0,0,.1.41Z" transform="translate(-0.05 0.25)"/><path class="cls-4" d="M39,103.79a1.34,1.34,0,0,0,1.13-.2l-.64-.74a.9.9,0,0,0-.36-.28.52.52,0,0,0-.63.46.73.73,0,0,0,.46.7Z" transform="translate(-0.05 0.25)"/><path class="cls-5" d="M29.23,78.65l-.2-.27a.4.4,0,0,0-.32.39.33.33,0,0,0,.36.31.28.28,0,0,0,.2-.41Z" transform="translate(-0.05 0.25)"/><path class="cls-4" d="M37.1,99.08c-.21,0-.28.32-.18.51s.3.31.43.49a.82.82,0,0,1,.11.63.38.38,0,0,1-.24.28.39.39,0,0,1-.26,0,2.24,2.24,0,0,1-1.07-.65,1.11,1.11,0,0,1-.18-1.19.87.87,0,0,1,.73-.42.82.82,0,0,1,.73.42Z" transform="translate(-0.05 0.25)"/><path class="cls-4" d="M42.74,100.16a.52.52,0,0,0,.58-.42A.75.75,0,0,0,43,99c-.1-.07-.24-.12-.33,0s-.06.15-.06.23l0,1Z" transform="translate(-0.05 0.25)"/><path class="cls-4" d="M40.78,87.7a.88.88,0,0,1-1.08-.87,2.13,2.13,0,0,1,1.25,0,.75.75,0,0,1,.4,1l-.72.19Z" transform="translate(-0.05 0.25)"/><path class="cls-4" d="M41.59,130.17c0,.11-.08.24-.2.26a.57.57,0,0,1-.35-.1.85.85,0,0,1-.22-.2.44.44,0,0,1,.1-.54.54.54,0,0,1,.56-.09.32.32,0,0,1,.21.18.19.19,0,0,1-.08.25Z" transform="translate(-0.05 0.25)"/><path class="cls-4" d="M37.22,94.61l.27-.21c-.09-.15-.19-.32-.36-.37s-.4.11-.34.27a.34.34,0,0,0,.14.15l.51.38Z" transform="translate(-0.05 0.25)"/><path class="cls-4" d="M35.8,88.64a2,2,0,0,0,.43-.72.69.69,0,0,0-.21-.76.71.71,0,0,0-.4-.11.81.81,0,0,0-.73.88.8.8,0,0,0,.91.67Z" transform="translate(-0.05 0.25)"/><path class="cls-4" d="M37.59,86.26c0-.19,0-.38,0-.57a1.09,1.09,0,0,0-.44-.06.55.55,0,0,0,.26.72Z" transform="translate(-0.05 0.25)"/><path class="cls-4" d="M51.87,97.64a7.17,7.17,0,0,0-1.29-3,1.22,1.22,0,0,0-.37-.38,1,1,0,0,0-1,.07,2.14,2.14,0,0,0-1,2.16,2.6,2.6,0,0,0,1.51,1.91,1.77,1.77,0,0,0,1.35.13,1,1,0,0,0,.66-1.09.22.22,0,0,0-.3.21Z" transform="translate(-0.05 0.25)"/><path class="cls-4" d="M31.09,107.27a1.76,1.76,0,0,0,.62-1.39,1.83,1.83,0,0,0-.7.06.61.61,0,0,0-.42.52c0,.32.32.54.61.69l-.26.08Z" transform="translate(-0.05 0.25)"/><path class="cls-4" d="M29.48,103.82a.75.75,0,0,0,.09-.43.76.76,0,0,0-.25-.34,7.13,7.13,0,0,1-.8-.85c0,.64-.05,1.29-.08,1.94a.66.66,0,0,1,0,.15c-.08.17-.32.14-.47.24s-.2.47-.11.72C28.46,107,29.14,104.55,29.48,103.82Z" transform="translate(-0.05 0.25)"/><path class="cls-4" d="M32.83,110.34a1.34,1.34,0,0,0,.79-.84l-1-.2a.86.86,0,0,0-.45,0A.51.51,0,0,0,32,110a.73.73,0,0,0,.79.29Z" transform="translate(-0.05 0.25)"/><path class="cls-4" d="M35.13,129.68l-.2-.26a.39.39,0,0,0-.32.38.33.33,0,0,0,.36.31.28.28,0,0,0,.2-.41Z" transform="translate(-0.05 0.25)"/><path class="cls-4" d="M33.62,105.22a.52.52,0,0,0,.22-.69.74.74,0,0,0-.67-.37c-.12,0-.26,0-.28.16s0,.15.09.22l.61.78Z" transform="translate(-0.05 0.25)"/><path class="cls-4" d="M38.1,106.49a2,2,0,0,0,.43-.72.69.69,0,0,0-.21-.76.71.71,0,0,0-.4-.11.81.81,0,0,0-.73.88.8.8,0,0,0,.91.67Z" transform="translate(-0.05 0.25)"/><path class="cls-4" d="M42.5,92.92c-.14-.25-.49-.27-.77-.23s-.63.08-.81-.14a.26.26,0,0,1-.07-.22c0-.19.33-.16.53-.2a1.69,1.69,0,0,0,.43-.2,1,1,0,0,1,1.06.19.52.52,0,0,1-.16.56.54.54,0,0,1-.57.07Z" transform="translate(-0.05 0.25)"/><path class="cls-4" d="M37.66,87.74c-.13-.25-.49-.26-.77-.22s-.62.07-.81-.15a.24.24,0,0,1-.06-.21c0-.2.33-.16.52-.2a2.53,2.53,0,0,0,.44-.21A1,1,0,0,1,38,87a.56.56,0,0,1-.16.56.56.56,0,0,1-.58.07Z" transform="translate(-0.05 0.25)"/><path class="cls-4" d="M38.2,82.48a1.61,1.61,0,0,0,0-.69.42.42,0,0,0,0-.1.22.22,0,0,0-.2-.07.44.44,0,0,0-.37.34.55.55,0,0,0,.13.49.45.45,0,0,0,.25.14.21.21,0,0,0,.22-.16,0,0,0,0,0-.07,0Z" transform="translate(-0.05 0.25)"/><path class="cls-4" d="M38.44,116.18a1.73,1.73,0,0,0,.63-1.39,1.89,1.89,0,0,0-.71.07.61.61,0,0,0-.42.52c0,.32.32.54.61.69l-.26.08Z" transform="translate(-0.05 0.25)"/><path class="cls-4" d="M33.49,116a.46.46,0,0,0,.68-.41.79.79,0,0,0-.49-.13.38.38,0,0,0-.35.32c0,.17.18.34.33.27Z" transform="translate(-0.05 0.25)"/><path class="cls-4" d="M37,108a.46.46,0,0,0,.67-.42.84.84,0,0,0-.49-.13.41.41,0,0,0-.35.33.27.27,0,0,0,.34.27Z" transform="translate(-0.05 0.25)"/><path class="cls-4" d="M35.81,116.65c-.16.14,0,.42.17.51a5.82,5.82,0,0,0,.63.14.77.77,0,0,1,.46.44.37.37,0,0,1,0,.37.45.45,0,0,1-.22.13,2.33,2.33,0,0,1-1.25.12,1.07,1.07,0,0,1-.85-.84.83.83,0,0,1,1.16-.88Z" transform="translate(-0.05 0.25)"/><path class="cls-4" d="M39.76,91.91c-.16.14,0,.43.17.52a5.82,5.82,0,0,0,.63.14A.78.78,0,0,1,41,93a.37.37,0,0,1,0,.37.43.43,0,0,1-.22.12,2.24,2.24,0,0,1-1.25.12,1.07,1.07,0,0,1-.85-.84A.87.87,0,0,1,39,92a.85.85,0,0,1,.84-.09Z" transform="translate(-0.05 0.25)"/><path class="cls-4" d="M42.55,91.92c-.16.14,0,.43.17.52a6.4,6.4,0,0,0,.63.14.78.78,0,0,1,.47.44.37.37,0,0,1,0,.37.43.43,0,0,1-.22.12,2.24,2.24,0,0,1-1.25.12,1.09,1.09,0,0,1-.85-.84A.85.85,0,0,1,41.8,92a.83.83,0,0,1,.83-.09Z" transform="translate(-0.05 0.25)"/><path class="cls-4" d="M41.65,96.13c-.16.14,0,.42.17.51a5.82,5.82,0,0,0,.63.14.77.77,0,0,1,.46.44.37.37,0,0,1,0,.37.45.45,0,0,1-.22.13,2.33,2.33,0,0,1-1.25.12,1.08,1.08,0,0,1-.85-.84.83.83,0,0,1,1.16-.88Z" transform="translate(-0.05 0.25)"/><path class="cls-4" d="M14.13,83.88c-.16.14,0,.43.17.52a5.82,5.82,0,0,0,.63.14.77.77,0,0,1,.46.44.37.37,0,0,1,0,.37.45.45,0,0,1-.22.13,2.33,2.33,0,0,1-1.25.12,1.08,1.08,0,0,1-.85-.85.82.82,0,0,1,1.16-.87Z" transform="translate(-0.05 0.25)"/><path class="cls-4" d="M33.23,113l.09-.33a.72.72,0,0,0-.51-.08c-.17.06-.26.32-.11.42a.45.45,0,0,0,.2,0h.64Z" transform="translate(-0.05 0.25)"/><path class="cls-4" d="M25.79,91.62a2.1,2.1,0,0,0,.42-.72.69.69,0,0,0-.21-.76.71.71,0,0,0-.4-.11.81.81,0,0,0-.73.88.8.8,0,0,0,.91.67Z" transform="translate(-0.05 0.25)"/><path class="cls-4" d="M41.22,109.55a.58.58,0,0,1-.86.46,1.48,1.48,0,0,1-.07-.66,1,1,0,0,1,.71.14Z" transform="translate(-0.05 0.25)"/><path class="cls-5" d="M27.63,88.54a1.35,1.35,0,0,0,.17-.46.4.4,0,0,0-.21-.4c-.25-.11-.5.13-.77.14s-.54-.2-.78-.09a.44.44,0,0,0-.11.67,1.12,1.12,0,0,0,.7.35,1.25,1.25,0,0,0,.69,0,.5.5,0,0,0,.36-.54Z" transform="translate(-0.05 0.25)"/><path class="cls-4" d="M38.75,97.92a3.35,3.35,0,0,0,2.82-1.63,3.49,3.49,0,0,0-2.68-1.85,2.13,2.13,0,0,0-2.29,2c0,1.13,1.62,1.95,2.42,1.15Z" transform="translate(-0.05 0.25)"/><path class="cls-4" d="M43.83,109.68a.3.3,0,0,1-.3-.29.6.6,0,0,1,.2-.41.58.58,0,0,1,.24-.14.4.4,0,0,1,.46.32.43.43,0,0,1-.36.45.44.44,0,0,1-.47-.33Z" transform="translate(-0.05 0.25)"/><path class="cls-4" d="M41.3,104c-.2-.19-.54-.09-.8,0s-.56.28-.81.14a.26.26,0,0,1-.13-.18c0-.21.26-.27.43-.37a1.57,1.57,0,0,0,.34-.34,1,1,0,0,1,1.07-.16.55.55,0,0,1,0,.58.57.57,0,0,1-.52.26Z" transform="translate(-0.05 0.25)"/><path class="cls-4" d="M34.76,97.64v-.33a.4.4,0,0,0-.49.12.34.34,0,0,0,.1.47.29.29,0,0,0,.4-.22Z" transform="translate(-0.05 0.25)"/><path class="cls-4" d="M37.53,103.28a.23.23,0,0,1-.31.1.58.58,0,0,1-.22-.29.65.65,0,0,1-.06-.3.44.44,0,0,1,.41-.37.58.58,0,0,1,.5.26.41.41,0,0,1,.06.28.21.21,0,0,1-.22.15Z" transform="translate(-0.05 0.25)"/><path class="cls-4" d="M28.32,105.56a3.37,3.37,0,0,0,3.2.6A3.54,3.54,0,0,0,30.7,103a2.13,2.13,0,0,0-3,0c-.72.87,0,2.53,1.08,2.45Z" transform="translate(-0.05 0.25)"/><path class="cls-4" d="M34.55,111.89c.22-.24-.16-.65-.48-.57s-.52.39-.68.68a1.17,1.17,0,0,0,1.29,0Z" transform="translate(-0.05 0.25)"/><path class="cls-4" d="M45.19,106.23c0-.11,0-.22,0-.33a.4.4,0,0,0-.48.12.33.33,0,0,0,.1.47.29.29,0,0,0,.4-.22Z" transform="translate(-0.05 0.25)"/><path class="cls-4" d="M39.24,105.31a7.8,7.8,0,0,0,.22-3.56,1.32,1.32,0,0,0-.18-.55,1.14,1.14,0,0,0-1-.41,2.31,2.31,0,0,0-2,1.62,2.87,2.87,0,0,0,.54,2.58,2,2,0,0,0,1.25.78,1.09,1.09,0,0,0,1.17-.74.23.23,0,0,0-.39.06Z" transform="translate(-0.05 0.25)"/><path class="cls-4" d="M20.62,98.56a3.38,3.38,0,0,0,1.28-3,3.54,3.54,0,0,0-3.26.13,2.14,2.14,0,0,0-.65,3c.7.88,2.46.58,2.62-.54Z" transform="translate(-0.05 0.25)"/><path class="cls-4" d="M36.48,84.16a1.68,1.68,0,0,0,.62-1.38,1.83,1.83,0,0,0-.7.06.61.61,0,0,0-.42.52c0,.32.32.54.61.69l-.26.08Z" transform="translate(-0.05 0.25)"/><path class="cls-4" d="M34.87,80.71a.7.7,0,0,0,.09-.42.76.76,0,0,0-.25-.34,6.52,6.52,0,0,1-.8-.86l-.08,2a.37.37,0,0,1,0,.15c-.08.16-.32.14-.47.24s-.2.47-.11.71C33.85,83.91,34.53,81.45,34.87,80.71Z" transform="translate(-0.05 0.25)"/><path class="cls-4" d="M41.66,102.75c0-.19,0-.38.05-.57a.91.91,0,0,0-.91.55c-.12.36.24.82.6.7s.54-.28.61-.06Z" transform="translate(-0.05 0.25)"/><path class="cls-4" d="M32.49,89.17a.8.8,0,0,1-.1.46,1.34,1.34,0,0,1-.32-1.14c0-.23.07-.5.29-.57s.32,0,.47,0c.32,0,.71-.23.92,0a.38.38,0,0,1,0,.49,1.06,1.06,0,0,1-.45.29l-1.09.46Z" transform="translate(-0.05 0.25)"/><path class="cls-4" d="M26.27,89.54c.22-.25-.15-.65-.48-.57s-.52.39-.68.68a1.18,1.18,0,0,0,1.29,0Z" transform="translate(-0.05 0.25)"/><path class="cls-5" d="M29.56,83.28a.3.3,0,0,1-.41-.06.54.54,0,0,1-.08-.45.46.46,0,0,1,.1-.25.4.4,0,0,1,.56,0,.41.41,0,0,1,0,.57.44.44,0,0,1-.58,0Z" transform="translate(-0.05 0.25)"/><path class="cls-4" d="M31.53,84a.47.47,0,0,0,.68-.42.86.86,0,0,0-.49-.13.38.38,0,0,0-.35.32.25.25,0,0,0,.33.27Z" transform="translate(-0.05 0.25)"/><path class="cls-4" d="M38.22,87.24A1.34,1.34,0,0,0,39,86.4l-1-.2a.87.87,0,0,0-.45,0,.52.52,0,0,0-.23.75.71.71,0,0,0,.79.28Z" transform="translate(-0.05 0.25)"/><path class="cls-5" d="M25.49,85.51a.61.61,0,0,1-.65.06.59.59,0,0,1-.31-.56c0-.16.14-.34.29-.3a.46.46,0,0,1,.16.11l.61.63-.13.09Z" transform="translate(-0.05 0.25)"/><path class="cls-5" d="M21.39,83.59c-.14-.25-.49-.26-.77-.23s-.63.08-.81-.14a.25.25,0,0,1-.07-.21c.05-.2.33-.16.53-.2a2.53,2.53,0,0,0,.44-.21,1,1,0,0,1,1.06.2.53.53,0,0,1-.17.55.52.52,0,0,1-.57.08Z" transform="translate(-0.05 0.25)"/><path class="cls-5" d="M45.31,93.74c-.13-.26-.48-.27-.76-.23s-.63.07-.81-.14a.26.26,0,0,1-.07-.22c0-.2.33-.16.53-.2a1.72,1.72,0,0,0,.43-.21,1,1,0,0,1,1.06.2.52.52,0,0,1-.73.63Z" transform="translate(-0.05 0.25)"/><path class="cls-5" d="M22.65,81l.1-.31a.38.38,0,0,0-.49,0,.32.32,0,0,0-.06.47.28.28,0,0,0,.45-.07Z" transform="translate(-0.05 0.25)"/><path class="cls-4" d="M33.85,84.63c-.16.14,0,.43.16.51a4.75,4.75,0,0,0,.63.14.77.77,0,0,1,.47.45.36.36,0,0,1,0,.36.45.45,0,0,1-.22.13,2.34,2.34,0,0,1-1.25.12,1.09,1.09,0,0,1-.86-.84.84.84,0,0,1,1.17-.88Z" transform="translate(-0.05 0.25)"/><path class="cls-4" d="M39,82.12a.52.52,0,0,0,.22-.69.74.74,0,0,0-.67-.37c-.12,0-.26,0-.28.16a.29.29,0,0,0,.09.21l.61.78Z" transform="translate(-0.05 0.25)"/><path class="cls-4" d="M29.17,93.2a.88.88,0,0,1-1.08-.88,2.3,2.3,0,0,1,1.25,0,.75.75,0,0,1,.4,1l-.71.19Z" transform="translate(-0.05 0.25)"/><path class="cls-5" d="M31.27,81l.09-.33a.72.72,0,0,0-.51-.08c-.17.06-.26.33-.11.42a.34.34,0,0,0,.2,0h.64Z" transform="translate(-0.05 0.25)"/><path class="cls-4" d="M38.7,110.39a2.3,2.3,0,0,0,.43-.72.74.74,0,0,0-.22-.77.62.62,0,0,0-.4-.1.78.78,0,1,0,.18,1.55Z" transform="translate(-0.05 0.25)"/><path class="cls-4" d="M25.5,100.09c0-.19,0-.39.05-.58a1.06,1.06,0,0,0-.43-.05.53.53,0,0,0,.25.71Z" transform="translate(-0.05 0.25)"/><path class="cls-4" d="M38.29,125.26a.31.31,0,0,1-.42-.06.58.58,0,0,1-.08-.45.55.55,0,0,1,.1-.25.4.4,0,0,1,.56,0,.43.43,0,0,1,0,.58.45.45,0,0,1-.58,0Z" transform="translate(-0.05 0.25)"/><path class="cls-4" d="M28.67,96.55c0-.19,0-.38,0-.58a1.3,1.3,0,0,0-.44,0,.56.56,0,0,0,.26.72Z" transform="translate(-0.05 0.25)"/><path class="cls-4" d="M44.38,97.39c.2-.08.16-.4,0-.54s-.39-.19-.56-.32A.79.79,0,0,1,43.5,96a.36.36,0,0,1,.13-.34.42.42,0,0,1,.25-.06,2.28,2.28,0,0,1,1.23.26,1.1,1.1,0,0,1,.57,1,.87.87,0,0,1-.55.65.84.84,0,0,1-.83-.16Z" transform="translate(-0.05 0.25)"/><path class="cls-4" d="M36.36,105.55a1,1,0,0,0-.28.38.41.41,0,0,0,.07.45c.2.18.52,0,.78.09s.46.35.72.32a.45.45,0,0,0,.3-.62,1.16,1.16,0,0,0-.56-.53,1.27,1.27,0,0,0-.66-.22.52.52,0,0,0-.51.41Z" transform="translate(-0.05 0.25)"/><path class="cls-4" d="M37.43,93.2A6.48,6.48,0,0,0,38.14,96a1.15,1.15,0,0,0,.27.38.94.94,0,0,0,.88.07,1.88,1.88,0,0,0,1.16-1.75,2.3,2.3,0,0,0-1.05-1.87,1.58,1.58,0,0,0-1.16-.3.89.89,0,0,0-.73.86.19.19,0,0,0,.29-.14Z" transform="translate(-0.05 0.25)"/><path class="cls-4" d="M44.2,95.33a.63.63,0,0,0,.41-.13.69.69,0,0,0,.17-.39,6.22,6.22,0,0,1,.35-1.11l-1.73.89a.27.27,0,0,1-.15,0c-.18,0-.27-.2-.43-.29s-.51.06-.68.26C40.92,96,43.4,95.4,44.2,95.33Z" transform="translate(-0.05 0.25)"/><path class="cls-4" d="M37.66,93.13l.13-.31a.41.41,0,0,0-.5-.09.34.34,0,0,0-.09.47.29.29,0,0,0,.46,0Z" transform="translate(-0.05 0.25)"/><path class="cls-4" d="M42.9,92.52a.53.53,0,0,0,.71-.15.76.76,0,0,0,0-.77c-.06-.1-.17-.2-.28-.16s-.11.11-.14.18c-.13.31-.25.61-.37.92Z" transform="translate(-0.05 0.25)"/><path class="cls-4" d="M39.38,92.1A1.71,1.71,0,0,0,40.89,92a1.82,1.82,0,0,0-.4-.58.62.62,0,0,0-.66-.11c-.28.16-.31.55-.3.87L39.34,92Z" transform="translate(-0.05 0.25)"/><path class="cls-4" d="M37.45,90.69a.8.8,0,0,1-.45.14c.07-.4.47-.66.83-.84s.48-.19.65,0,.12.28.2.43.54.49.45.8a.4.4,0,0,1-.45.22,1.07,1.07,0,0,1-.47-.25l-.94-.71Z" transform="translate(-0.05 0.25)"/><path class="cls-4" d="M42,94.7A1.3,1.3,0,0,0,43.1,95L42.8,94a.9.9,0,0,0-.21-.4.52.52,0,0,0-.77.17.74.74,0,0,0,.15.83Z" transform="translate(-0.05 0.25)"/><path class="cls-4" d="M42.07,89.61c-.2-.07-.38.19-.36.4a4.89,4.89,0,0,0,.19.62.81.81,0,0,1-.15.62.39.39,0,0,1-.33.17.54.54,0,0,1-.22-.13,2.33,2.33,0,0,1-.73-1,1.09,1.09,0,0,1,.31-1.16.84.84,0,0,1,.84-.1.83.83,0,0,1,.5.68Z" transform="translate(-0.05 0.25)"/><path class="cls-4" d="M33.66,100.69a2.16,2.16,0,0,0,.84,0,.71.71,0,0,0,.56-.57.64.64,0,0,0-.11-.4.82.82,0,0,0-1.12-.2.81.81,0,0,0-.13,1.13Z" transform="translate(-0.05 0.25)"/><path class="cls-4" d="M39.7,102.47a1.74,1.74,0,0,0,1.52-.14,1.7,1.7,0,0,0-.41-.58.61.61,0,0,0-.65-.11c-.29.16-.31.55-.3.87l-.2-.18Z" transform="translate(-0.05 0.25)"/><path class="cls-4" d="M37,89.81c-.11-.26-.47-.3-.75-.28s-.63,0-.8-.2a.29.29,0,0,1-.05-.22c.07-.19.34-.14.54-.16a1.92,1.92,0,0,0,.45-.18,1,1,0,0,1,1,.27.56.56,0,0,1-.21.55.55.55,0,0,1-.58,0Z" transform="translate(-0.05 0.25)"/><path class="cls-4" d="M30.87,111l-.09-.32a.38.38,0,0,0-.44.22.32.32,0,0,0,.21.43.28.28,0,0,0,.34-.3Z" transform="translate(-0.05 0.25)"/><path class="cls-4" d="M39.87,96.37l.33-.08A.76.76,0,0,0,40,95.8c-.14-.11-.41-.06-.42.12a.44.44,0,0,0,.07.19l.31.55Z" transform="translate(-0.05 0.25)"/><path class="cls-6" d="M56.15,103.79a6.75,6.75,0,0,0-2.54-2.2c-3.22-1.45-8.79-3.14-12.46-6.72-5.44-5.32-7.34-10.55-6.94-11.67s8.15.48,13.3,4.59S53.79,99,54,101a7.87,7.87,0,0,0,2.88.65l.41,2.08Z" transform="translate(-0.05 0.25)"/><path class="cls-7" d="M34.21,83.2s10.8,5.07,14,8.88A32,32,0,0,1,53,99.72S39.55,98.8,34.21,83.2Z" transform="translate(-0.05 0.25)"/><path class="cls-8" d="M198.77,140.85a51.42,51.42,0,0,0,16.59-1.34c9.5-2.24,22.32-24.41,20.83-27.94s-22.37,3.92-29.31,12.44-5.59,15.5-5.59,15.5l-2.39.37Z" transform="translate(-0.05 0.25)"/><path class="cls-9" d="M202.66,139.69s19.51-22.33,32.63-28.23C235.29,111.46,228.19,142.69,202.66,139.69Z" transform="translate(-0.05 0.25)"/><path class="cls-10" d="M206.35,122.63a1.66,1.66,0,0,0,1-1.11,1.72,1.72,0,0,0-.67-.15.58.58,0,0,0-.54.36c-.1.3.13.6.35.82h-.26Z" transform="translate(-0.05 0.25)"/><path class="cls-10" d="M207.28,124.44a.72.72,0,0,1,.05.46,1.33,1.33,0,0,1-.65-1c-.06-.21-.1-.49.08-.62a1.35,1.35,0,0,1,.45-.11c.3-.09.58-.44.85-.29a.39.39,0,0,1,.13.47,1.14,1.14,0,0,1-.32.41l-.86.77Z" transform="translate(-0.05 0.25)"/><path class="cls-11" d="M200.56,106.29c.12-.3-.35-.55-.63-.38a1.18,1.18,0,0,0-.4.85,1.13,1.13,0,0,0,1.2-.37Z" transform="translate(-0.05 0.25)"/><path class="cls-10" d="M201.79,121a.46.46,0,0,0,.76-.19.87.87,0,0,0-.42-.27.38.38,0,0,0-.42.2.25.25,0,0,0,.23.35Z" transform="translate(-0.05 0.25)"/><path class="cls-10" d="M203.76,122.28c-.19.08-.15.39,0,.53s.38.19.55.32a.73.73,0,0,1,.3.55.35.35,0,0,1-.13.33.4.4,0,0,1-.24,0,2.24,2.24,0,0,1-1.2-.25,1,1,0,0,1-.54-1,.82.82,0,0,1,.53-.63.83.83,0,0,1,.81.16Z" transform="translate(-0.05 0.25)"/><path class="cls-10" d="M209.32,121.47a.5.5,0,0,0,.4-.57.73.73,0,0,0-.51-.55c-.11,0-.26,0-.31.06a.26.26,0,0,0,0,.23c.11.31.22.61.34.91Z" transform="translate(-0.05 0.25)"/><path class="cls-10" d="M235.71,72.16a7,7,0,0,0-2.16-2.39,1.15,1.15,0,0,0-.47-.23,1,1,0,0,0-.89.38,2.09,2.09,0,0,0-.23,2.32,2.58,2.58,0,0,0,2,1.28,1.69,1.69,0,0,0,1.28-.32,1,1,0,0,0,.27-1.22.21.21,0,0,0-.21.29Z" transform="translate(-0.05 0.25)"/><path class="cls-10" d="M46.65,80.94a7.07,7.07,0,0,0-2.16-2.39,1.15,1.15,0,0,0-.46-.22,1,1,0,0,0-.89.38A2.06,2.06,0,0,0,42.9,81a2.59,2.59,0,0,0,2,1.29A1.77,1.77,0,0,0,46.2,82a1,1,0,0,0,.26-1.22.21.21,0,0,0-.21.29Z" transform="translate(-0.05 0.25)"/><path class="cls-10" d="M202.58,112.59a1.44,1.44,0,0,0-.22-.64.27.27,0,0,0-.07-.08.22.22,0,0,0-.21,0,.44.44,0,0,0-.23.43.55.55,0,0,0,.28.41.4.4,0,0,0,.28.05.22.22,0,0,0,.15-.22s-.07,0-.06,0Z" transform="translate(-0.05 0.25)"/><path class="cls-10" d="M207,118.1c-.11.18.11.4.31.42s.42-.07.63-.07a.72.72,0,0,1,.57.25.34.34,0,0,1,.1.35.49.49,0,0,1-.16.19,2.29,2.29,0,0,1-1.12.51,1.07,1.07,0,0,1-1.06-.5.82.82,0,0,1,.06-.83.8.8,0,0,1,.74-.35Z" transform="translate(-0.05 0.25)"/><path class="cls-10" d="M201.14,121.71l-.11-.31a.39.39,0,0,0-.41.26.34.34,0,0,0,.24.41.29.29,0,0,0,.31-.33Z" transform="translate(-0.05 0.25)"/><path class="cls-10" d="M207.74,127.35a7.64,7.64,0,0,0-.94-3.36,1.37,1.37,0,0,0-.34-.45,1.11,1.11,0,0,0-1.05-.06,2.28,2.28,0,0,0-1.35,2.14,2.81,2.81,0,0,0,1.33,2.21,1.91,1.91,0,0,0,1.4.32,1.06,1.06,0,0,0,.84-1.06.22.22,0,0,0-.33.18Z" transform="translate(-0.05 0.25)"/><path class="cls-10" d="M201.53,114.69a1.71,1.71,0,0,0,.14-1.48,1.9,1.9,0,0,0-.63.28.59.59,0,0,0-.22.62c.1.3.47.39.78.44l-.21.16Z" transform="translate(-0.05 0.25)"/><path class="cls-10" d="M198.94,112a.61.61,0,0,0-.05-.42.69.69,0,0,0-.34-.23,6.53,6.53,0,0,1-1-.54l.55,1.83a.77.77,0,0,1,0,.15c0,.17-.25.23-.36.36s0,.5.13.7C199,115.3,198.87,112.81,198.94,112Z" transform="translate(-0.05 0.25)"/><path class="cls-10" d="M41.92,72.24a.74.74,0,0,0-.05-.42.7.7,0,0,0-.35-.23,6,6,0,0,1-1-.54l.54,1.83a.22.22,0,0,1,0,.14c0,.18-.24.23-.36.37s0,.5.13.7C42,75.52,41.84,73,41.92,72.24Z" transform="translate(-0.05 0.25)"/><path class="cls-10" d="M205.12,87.58a.45.45,0,0,0,.49-.6.75.75,0,0,0-.49,0,.38.38,0,0,0-.22.41.25.25,0,0,0,.39.14Z" transform="translate(-0.05 0.25)"/><path class="cls-10" d="M203.22,112a.5.5,0,0,0,0-.7.74.74,0,0,0-.73-.14c-.11,0-.23.13-.21.24s.09.13.15.18l.82.52Z" transform="translate(-0.05 0.25)"/><path class="cls-10" d="M201.11,124.87a2.12,2.12,0,0,0,.78-.26.7.7,0,0,0,.32-.7.6.6,0,0,0-.22-.34.8.8,0,0,0-1.1.18.79.79,0,0,0,.24,1.08Z" transform="translate(-0.05 0.25)"/><path class="cls-10" d="M205.45,118.9l.28-.19a.71.71,0,0,0-.33-.39c-.16-.06-.39.08-.34.24a.38.38,0,0,0,.12.16l.47.41Z" transform="translate(-0.05 0.25)"/></g></g></svg>